<svg height="1038" width="720" xmlns="http://www.w3.org/2000/svg">
<rect height="1038" fill="#555" width="720"></rect>
<text fill="#7f7" font-family="Courier New" font-size="12" xml:space="preserve">
<tspan x="10" y="26">5 megabytes installed</tspan>
<tspan x="10" y="42"></tspan>
<tspan x="10" y="58">node_modules</tspan>
<tspan x="10" y="74">└─┬ shrinkpack@0.18.1 </tspan>
<tspan x="10" y="90">  ├─┬ chalk@1.1.3 </tspan>
<tspan x="10" y="106">  │ ├── ansi-styles@2.2.1 </tspan>
<tspan x="10" y="122">  │ ├── escape-string-regexp@1.0.5 </tspan>
<tspan x="10" y="138">  │ ├─┬ has-ansi@2.0.0 </tspan>
<tspan x="10" y="154">  │ │ └── ansi-regex@2.1.1 </tspan>
<tspan x="10" y="170">  │ ├── strip-ansi@3.0.1 </tspan>
<tspan x="10" y="186">  │ └── supports-color@2.0.0 </tspan>
<tspan x="10" y="202">  ├─┬ commander@2.9.0 </tspan>
<tspan x="10" y="218">  │ └── graceful-readlink@1.0.1 </tspan>
<tspan x="10" y="234">  ├─┬ execa@0.5.0 </tspan>
<tspan x="10" y="250">  │ ├─┬ cross-spawn@4.0.2 </tspan>
<tspan x="10" y="266">  │ │ ├─┬ lru-cache@4.0.2 </tspan>
<tspan x="10" y="282">  │ │ │ ├── pseudomap@1.0.2 </tspan>
<tspan x="10" y="298">  │ │ │ └── yallist@2.1.2 </tspan>
<tspan x="10" y="314">  │ │ └─┬ which@1.2.14 </tspan>
<tspan x="10" y="330">  │ │   └── isexe@2.0.0 </tspan>
<tspan x="10" y="346">  │ ├─┬ get-stream@2.3.1 </tspan>
<tspan x="10" y="362">  │ │ ├── object-assign@4.1.1 </tspan>
<tspan x="10" y="378">  │ │ └─┬ pinkie-promise@2.0.1 </tspan>
<tspan x="10" y="394">  │ │   └── pinkie@2.0.4 </tspan>
<tspan x="10" y="410">  │ ├── is-stream@1.1.0 </tspan>
<tspan x="10" y="426">  │ ├─┬ npm-run-path@2.0.2 </tspan>
<tspan x="10" y="442">  │ │ └── path-key@2.0.1 </tspan>
<tspan x="10" y="458">  │ ├── signal-exit@3.0.2 </tspan>
<tspan x="10" y="474">  │ └── strip-eof@1.0.0 </tspan>
<tspan x="10" y="490">  ├── graceful-fs@4.1.11 </tspan>
<tspan x="10" y="506">  ├─┬ gunzip-maybe@1.3.1 </tspan>
<tspan x="10" y="522">  │ ├─┬ browserify-zlib@0.1.4 </tspan>
<tspan x="10" y="538">  │ │ └── pako@0.2.9 </tspan>
<tspan x="10" y="554">  │ ├── is-deflate@1.0.0 </tspan>
<tspan x="10" y="570">  │ ├── is-gzip@1.0.0 </tspan>
<tspan x="10" y="586">  │ ├─┬ peek-stream@1.1.2 </tspan>
<tspan x="10" y="602">  │ │ ├─┬ duplexify@3.5.0 </tspan>
<tspan x="10" y="618">  │ │ │ ├── end-of-stream@1.0.0 </tspan>
<tspan x="10" y="634">  │ │ │ ├─┬ readable-stream@2.2.9 </tspan>
<tspan x="10" y="650">  │ │ │ │ ├── buffer-shims@1.0.0 </tspan>
<tspan x="10" y="666">  │ │ │ │ ├── isarray@1.0.0 </tspan>
<tspan x="10" y="682">  │ │ │ │ ├── process-nextick-args@1.0.7 </tspan>
<tspan x="10" y="698">  │ │ │ │ ├── string_decoder@1.0.0 </tspan>
<tspan x="10" y="714">  │ │ │ │ └── util-deprecate@1.0.2 </tspan>
<tspan x="10" y="730">  │ │ │ └── stream-shift@1.0.0 </tspan>
<tspan x="10" y="746">  │ │ └─┬ through2@2.0.3 </tspan>
<tspan x="10" y="762">  │ │   └── xtend@4.0.1 </tspan>
<tspan x="10" y="778">  │ ├─┬ pumpify@1.3.5 </tspan>
<tspan x="10" y="794">  │ │ ├── inherits@2.0.3 </tspan>
<tspan x="10" y="810">  │ │ └─┬ pump@1.0.2 </tspan>
<tspan x="10" y="826">  │ │   ├─┬ end-of-stream@1.4.0 </tspan>
<tspan x="10" y="842">  │ │   │ └── once@1.4.0 </tspan>
<tspan x="10" y="858">  │ │   └─┬ once@1.3.3 </tspan>
<tspan x="10" y="874">  │ │     └── wrappy@1.0.2 </tspan>
<tspan x="10" y="890">  │ └─┬ through2@0.4.2 </tspan>
<tspan x="10" y="906">  │   ├─┬ readable-stream@1.0.34 </tspan>
<tspan x="10" y="922">  │   │ ├── core-util-is@1.0.2 </tspan>
<tspan x="10" y="938">  │   │ ├── isarray@0.0.1 </tspan>
<tspan x="10" y="954">  │   │ └── string_decoder@0.10.31 </tspan>
<tspan x="10" y="970">  │   └─┬ xtend@2.1.2 </tspan>
<tspan x="10" y="986">  │     └── object-keys@0.4.0 </tspan>
<tspan x="10" y="1002">  ├── lodash.assign@4.2.0 </tspan>
<tspan x="10" y="1018">  └── when@3.7.7</tspan>
</text>
</svg>
